<svg width="14" height="19" viewBox="0 0 14 19" fill="none" xmlns="http://www.w3.org/2000/svg">
<path fill-rule="evenodd" clip-rule="evenodd" d="M2.09207 1.26336C3.2763 0.462817 4.95464 0.152466 7 0.152466C9.04536 0.152466 10.7237 0.462818 11.9079 1.26336C13.1578 2.10825 13.75 3.42241 13.75 5.10645V16.6683C13.75 18.2944 11.865 19.1087 10.7626 17.9589L7.17678 14.2191C7.07915 14.1173 6.92085 14.1173 6.82322 14.2191L3.23744 17.9589C2.135 19.1087 0.25 18.2944 0.25 16.6683V5.10645C0.25 3.42241 0.842241 2.10825 2.09207 1.26336ZM2.90793 2.57613C2.15776 3.08325 1.75 3.85498 1.75 5.10645V16.6683C1.75 16.9006 2.01928 17.0169 2.17678 16.8527L5.76256 13.1129C6.44598 12.4001 7.55402 12.4001 8.23744 13.1129L11.8232 16.8527C11.9807 17.0169 12.25 16.9006 12.25 16.6683V5.10645C12.25 3.85499 11.8422 3.08326 11.0921 2.57613C10.2763 2.02467 8.95464 1.71688 7 1.71688C5.04536 1.71688 3.7237 2.02467 2.90793 2.57613Z" fill="#001A72"/>
</svg>
