<svg width="25" height="29" viewBox="0 0 25 29" fill="none" xmlns="http://www.w3.org/2000/svg">
<path fill-rule="evenodd" clip-rule="evenodd" d="M13.4479 5.89257C12.8696 5.49138 12.1596 5.49138 11.5813 5.89257C10.4772 6.6586 8.85806 7.91504 7.4175 9.54214C5.85122 11.3112 5.17152 12.6366 4.85569 13.8752C4.56015 15.0342 4.56233 16.1719 4.56528 17.7103C4.56558 17.8676 4.56589 18.0292 4.56589 18.1954C4.56589 19.7838 4.67607 21.1218 4.79224 22.0907C4.86169 22.6698 5.31457 23.1188 5.91107 23.1188H7.3864C8.09446 23.1188 8.66845 22.4705 8.66845 21.6707V19.3538C8.66845 18.2017 9.07367 17.0967 9.79496 16.282C10.5163 15.4673 11.4945 15.0096 12.5146 15.0096C13.5347 15.0096 14.513 15.4673 15.2342 16.282C15.9555 17.0967 16.3608 18.2017 16.3608 19.3538V21.6707C16.3608 22.4705 16.9348 23.1188 17.6428 23.1188H19.1181C19.7146 23.1188 20.1675 22.6699 20.237 22.0907C20.3531 21.1218 20.4633 19.7838 20.4633 18.1954C20.4633 18.0292 20.4636 17.8677 20.4639 17.7103C20.4669 16.172 20.4691 15.0342 20.1735 13.8752C19.8577 12.6366 19.178 11.3112 17.6117 9.54214C16.1711 7.91504 14.552 6.6586 13.4479 5.89257ZM10.7761 4.41191C11.8483 3.66803 13.1809 3.66804 14.2531 4.41191C15.4135 5.217 17.1425 6.55471 18.6996 8.31341C20.3829 10.2147 21.2417 11.7855 21.6519 13.3943C22.0116 14.805 22.0074 16.1973 22.0028 17.6876C22.0023 17.8556 22.0018 18.0248 22.0018 18.1954C22.0018 19.8734 21.8855 21.2901 21.7615 22.3239C21.5783 23.8517 20.4042 24.8565 19.1181 24.8565H17.6428C16.0851 24.8565 14.8223 23.4302 14.8223 21.6707V19.3538C14.8223 18.6625 14.5792 17.9996 14.1464 17.5107C13.7136 17.0219 13.1266 16.7473 12.5146 16.7473C11.9026 16.7473 11.3156 17.0219 10.8828 17.5107C10.45 17.9996 10.2069 18.6625 10.2069 19.3538V21.6707C10.2069 23.4302 8.94412 24.8565 7.3864 24.8565H5.91107C4.62504 24.8565 3.4509 23.8517 3.2677 22.3239C3.14375 21.2901 3.02743 19.8734 3.02743 18.1954C3.02743 18.0248 3.02691 17.8555 3.0264 17.6876C3.02185 16.1973 3.01759 14.805 3.37732 13.3943C3.78754 11.7855 4.64629 10.2147 6.32965 8.31341C7.88673 6.55471 9.61568 5.217 10.7761 4.41191Z" fill="#246BFE"/>
</svg>
