<svg width="121" height="57" viewBox="0 0 121 57" fill="none" xmlns="http://www.w3.org/2000/svg">
<ellipse cx="30" cy="28.5" rx="30" ry="28.5" fill="#27AAD8"/>
<path d="M87.1969 7.23252C112.378 -6.15266 115.479 18.0232 115.479 18.0232C75.26 18.6074 74.9785 11.7662 87.1969 7.23252Z" fill="#F69A28"/>
<path d="M34.5705 20.4913V23.7793H30.1065V37.3393H26.0025V23.7793H21.5385V20.4913H34.5705ZM40.3262 37.5313C39.0142 37.5313 37.8302 37.2513 36.7742 36.6913C35.7342 36.1313 34.9102 35.3313 34.3022 34.2913C33.7102 33.2513 33.4142 32.0353 33.4142 30.6433C33.4142 29.2673 33.7182 28.0593 34.3262 27.0193C34.9342 25.9633 35.7662 25.1553 36.8222 24.5953C37.8782 24.0353 39.0622 23.7553 40.3742 23.7553C41.6862 23.7553 42.8702 24.0353 43.9262 24.5953C44.9822 25.1553 45.8142 25.9633 46.4222 27.0193C47.0302 28.0593 47.3342 29.2673 47.3342 30.6433C47.3342 32.0193 47.0222 33.2353 46.3982 34.2913C45.7902 35.3313 44.9502 36.1313 43.8782 36.6913C42.8222 37.2513 41.6382 37.5313 40.3262 37.5313ZM40.3262 33.9793C41.1102 33.9793 41.7742 33.6913 42.3182 33.1153C42.8782 32.5393 43.1582 31.7153 43.1582 30.6433C43.1582 29.5713 42.8862 28.7473 42.3422 28.1713C41.8142 27.5953 41.1582 27.3073 40.3742 27.3073C39.5742 27.3073 38.9102 27.5953 38.3822 28.1713C37.8542 28.7313 37.5902 29.5553 37.5902 30.6433C37.5902 31.7153 37.8462 32.5393 38.3582 33.1153C38.8862 33.6913 39.5422 33.9793 40.3262 33.9793ZM51.2154 25.8433C51.6154 25.2193 52.1674 24.7153 52.8714 24.3313C53.5754 23.9473 54.3994 23.7553 55.3434 23.7553C56.4474 23.7553 57.4474 24.0353 58.3434 24.5953C59.2394 25.1553 59.9434 25.9553 60.4554 26.9953C60.9834 28.0353 61.2474 29.2433 61.2474 30.6193C61.2474 31.9953 60.9834 33.2113 60.4554 34.2673C59.9434 35.3073 59.2394 36.1153 58.3434 36.6913C57.4474 37.2513 56.4474 37.5313 55.3434 37.5313C54.4154 37.5313 53.5914 37.3393 52.8714 36.9553C52.1674 36.5713 51.6154 36.0753 51.2154 35.4673V43.7233H47.1114V23.9473H51.2154V25.8433ZM57.0714 30.6193C57.0714 29.5953 56.7834 28.7953 56.2074 28.2193C55.6474 27.6273 54.9514 27.3313 54.1194 27.3313C53.3034 27.3313 52.6074 27.6273 52.0314 28.2193C51.4714 28.8113 51.1914 29.6193 51.1914 30.6433C51.1914 31.6673 51.4714 32.4753 52.0314 33.0673C52.6074 33.6593 53.3034 33.9553 54.1194 33.9553C54.9354 33.9553 55.6314 33.6593 56.2074 33.0673C56.7834 32.4593 57.0714 31.6433 57.0714 30.6193Z" fill="#F8F8FD"/>
<path d="M60.6885 34.2193V30.9073L68.2725 20.0593H72.8565V30.6673H74.8245V34.2193H72.8565V37.3393H68.7525V34.2193H60.6885ZM69.0405 24.5713L65.0085 30.6673H69.0405V24.5713ZM85.4027 20.4913V31.9633C85.4027 33.7393 84.8987 35.1073 83.8907 36.0673C82.8987 37.0273 81.5547 37.5073 79.8587 37.5073C78.0827 37.5073 76.6587 37.0033 75.5867 35.9953C74.5147 34.9873 73.9787 33.5553 73.9787 31.6993H78.0587C78.0587 32.4033 78.2027 32.9393 78.4907 33.3073C78.7787 33.6593 79.1947 33.8353 79.7387 33.8353C80.2347 33.8353 80.6187 33.6753 80.8907 33.3553C81.1627 33.0353 81.2987 32.5713 81.2987 31.9633V20.4913H85.4027ZM92.4137 37.5313C91.1017 37.5313 89.9177 37.2513 88.8617 36.6913C87.8217 36.1313 86.9977 35.3313 86.3897 34.2913C85.7977 33.2513 85.5017 32.0353 85.5017 30.6433C85.5017 29.2673 85.8057 28.0593 86.4137 27.0193C87.0217 25.9633 87.8537 25.1553 88.9097 24.5953C89.9657 24.0353 91.1497 23.7553 92.4617 23.7553C93.7737 23.7553 94.9577 24.0353 96.0137 24.5953C97.0697 25.1553 97.9017 25.9633 98.5097 27.0193C99.1177 28.0593 99.4217 29.2673 99.4217 30.6433C99.4217 32.0193 99.1097 33.2353 98.4857 34.2913C97.8777 35.3313 97.0377 36.1313 95.9657 36.6913C94.9097 37.2513 93.7257 37.5313 92.4137 37.5313ZM92.4137 33.9793C93.1977 33.9793 93.8617 33.6913 94.4057 33.1153C94.9657 32.5393 95.2457 31.7153 95.2457 30.6433C95.2457 29.5713 94.9737 28.7473 94.4297 28.1713C93.9017 27.5953 93.2457 27.3073 92.4617 27.3073C91.6617 27.3073 90.9977 27.5953 90.4697 28.1713C89.9417 28.7313 89.6777 29.5553 89.6777 30.6433C89.6777 31.7153 89.9337 32.5393 90.4457 33.1153C90.9737 33.6913 91.6297 33.9793 92.4137 33.9793ZM103.303 25.8433C103.687 25.2193 104.239 24.7153 104.959 24.3313C105.679 23.9473 106.503 23.7553 107.431 23.7553C108.535 23.7553 109.535 24.0353 110.431 24.5953C111.327 25.1553 112.031 25.9553 112.543 26.9953C113.071 28.0353 113.335 29.2433 113.335 30.6193C113.335 31.9953 113.071 33.2113 112.543 34.2673C112.031 35.3073 111.327 36.1153 110.431 36.6913C109.535 37.2513 108.535 37.5313 107.431 37.5313C106.487 37.5313 105.663 37.3473 104.959 36.9793C104.255 36.5953 103.703 36.0913 103.303 35.4673V37.3393H99.1989V19.5793H103.303V25.8433ZM109.159 30.6193C109.159 29.5953 108.871 28.7953 108.295 28.2193C107.735 27.6273 107.039 27.3313 106.207 27.3313C105.391 27.3313 104.695 27.6273 104.119 28.2193C103.559 28.8113 103.279 29.6193 103.279 30.6433C103.279 31.6673 103.559 32.4753 104.119 33.0673C104.695 33.6593 105.391 33.9553 106.207 33.9553C107.023 33.9553 107.719 33.6593 108.295 33.0673C108.871 32.4593 109.159 31.6433 109.159 30.6193Z" fill="#26A4FF"/>
</svg>
