<svg width="31" height="32" viewBox="0 0 31 32" fill="none" xmlns="http://www.w3.org/2000/svg">
<rect x="0.5" y="0.636597" width="30" height="30.5355" stroke="#D8E6F4"/>
<path fill-rule="evenodd" clip-rule="evenodd" d="M7.02643 8.51878L14.3581 15.9771C14.9887 16.6185 16.011 16.6185 16.6415 15.9771L23.9732 8.51878C22.3095 7.50771 19.6705 7.03493 15.4998 7.03493C11.3292 7.03493 8.69018 7.50771 7.02643 8.51878ZM25.4231 9.83127L18.0115 17.3708C16.6243 18.7819 14.3753 18.7819 12.9881 17.3708L5.57659 9.83127C4.64208 11.1051 4.19775 13.0008 4.19775 15.9043C4.19775 19.5861 4.91052 21.6512 6.44586 22.8842C8.0567 24.1779 10.8156 24.7736 15.4998 24.7736C20.184 24.7736 22.943 24.1779 24.5538 22.8842C26.0892 21.6512 26.8019 19.5861 26.8019 15.9043C26.8019 13.0007 26.3576 11.1051 25.4231 9.83127ZM4.89754 7.67611C7.06109 5.68798 10.552 5.06396 15.4998 5.06396C20.4477 5.06396 23.9386 5.68798 26.1021 7.67611C28.0882 9.50118 28.7394 12.2619 28.7394 15.9043C28.7394 19.7585 28.0086 22.6208 25.7544 24.4312C23.5757 26.1809 20.1992 26.7446 15.4998 26.7446C10.8005 26.7446 7.42398 26.1809 5.2453 24.4312C2.99112 22.6208 2.26025 19.7585 2.26025 15.9043C2.26025 12.2619 2.91144 9.50118 4.89754 7.67611Z" fill="#212121"/>
</svg>
