<svg width="18" height="19" viewBox="0 0 18 19" fill="none" xmlns="http://www.w3.org/2000/svg">
<path fill-rule="evenodd" clip-rule="evenodd" d="M4.56982 2.60168C3.67253 3.29237 3.10499 4.32077 3.10499 5.75C3.10499 7.84214 2.352 10.1286 1.61465 11.8799C1.19163 12.8847 1.93926 14 2.88737 14H13.8226C14.7707 14 15.5183 12.8847 15.0953 11.8799C14.358 10.1286 13.605 7.84214 13.605 5.75C13.605 4.32077 13.0374 3.29237 12.1402 2.60168C11.2196 1.89311 9.89531 1.5 8.35499 1.5C6.81466 1.5 5.49034 1.89311 4.56982 2.60168ZM12.105 15.5H13.8226C15.9837 15.5 17.2612 13.1587 16.4778 11.2979C15.7621 9.59805 15.105 7.53617 15.105 5.75C15.105 3.86553 14.3294 2.39392 13.0551 1.41304C11.8041 0.450038 10.1284 0 8.35499 0C6.5816 0 4.90592 0.450038 3.65487 1.41304C2.38059 2.39392 1.60499 3.86553 1.60499 5.75C1.60499 7.53617 0.947855 9.59805 0.232181 11.2979C-0.551263 13.1587 0.726301 15.5 2.88737 15.5H4.605V15.75C4.605 16.806 5.04482 17.6527 5.7762 18.2156C6.48436 18.7607 7.41004 19 8.355 19C9.29996 19 10.2256 18.7607 10.9338 18.2156C11.6652 17.6527 12.105 16.806 12.105 15.75V15.5ZM10.605 15.5H6.105V15.75C6.105 16.3508 6.33675 16.7542 6.69116 17.027C7.06878 17.3177 7.6431 17.5 8.355 17.5C9.0669 17.5 9.64122 17.3177 10.0188 17.027C10.3732 16.7542 10.605 16.3508 10.605 15.75V15.5Z" fill="black"/>
<circle cx="14.5" cy="3.5" r="3.5" fill="#CB3D3D"/>
</svg>
