<svg width="18" height="20" viewBox="0 0 18 20" fill="none" xmlns="http://www.w3.org/2000/svg">
<path fill-rule="evenodd" clip-rule="evenodd" d="M9 1.75C7.20507 1.75 5.75 3.20507 5.75 5C5.75 6.79493 7.20507 8.25 9 8.25C10.7949 8.25 12.25 6.79493 12.25 5C12.25 3.20507 10.7949 1.75 9 1.75ZM4.25 5C4.25 2.37665 6.37665 0.25 9 0.25C11.6234 0.25 13.75 2.37665 13.75 5C13.75 7.62335 11.6234 9.75 9 9.75C6.37665 9.75 4.25 7.62335 4.25 5ZM8.87132 11.75C8.91611 11.7501 8.95904 11.7501 9 11.7501C9.04096 11.7501 9.08389 11.7501 9.12869 11.75C10.1554 11.749 12.1638 11.7469 13.9522 12.2476C14.8893 12.5099 15.832 12.9271 16.5489 13.6108C17.2881 14.3158 17.75 15.2708 17.75 16.5001C17.75 18.295 16.2949 19.7501 14.5 19.7501H3.5C1.70507 19.7501 0.25 18.295 0.25 16.5001C0.25 15.2708 0.7119 14.3158 1.45112 13.6108C2.16804 12.9271 3.11067 12.5099 4.04781 12.2476C5.83624 11.7469 7.84456 11.749 8.87132 11.75ZM2.48638 14.6963C2.0381 15.1238 1.75 15.689 1.75 16.5001C1.75 17.4666 2.5335 18.2501 3.5 18.2501H14.5C15.4665 18.2501 16.25 17.4666 16.25 16.5001C16.25 15.689 15.9619 15.1238 15.5136 14.6963C15.043 14.2475 14.3607 13.9196 13.5478 13.6921C11.9644 13.2488 10.1362 13.2496 9.09636 13.2501C9.06344 13.2501 9.03131 13.2501 9 13.2501C8.96869 13.2501 8.93656 13.2501 8.90364 13.2501C7.86377 13.2496 6.0356 13.2488 4.45219 13.6921C3.63933 13.9196 2.95696 14.2475 2.48638 14.6963Z" fill="#001A72"/>
</svg>
