<svg width="27" height="26" viewBox="0 0 27 26" fill="none" xmlns="http://www.w3.org/2000/svg">
<path fill-rule="evenodd" clip-rule="evenodd" d="M4.94862 3.8177C3.51668 4.95066 2.84375 6.84973 2.84375 10.2763C2.84375 12.6667 3.17329 14.316 3.85275 15.473C4.5063 16.586 5.55811 17.3669 7.30109 17.8597C7.72031 17.9783 8.01042 18.3666 8.01042 18.8092V22.351L11.5393 18.7611C11.7272 18.5699 11.984 18.4657 12.2497 18.4728C12.6508 18.4835 13.0674 18.4887 13.5 18.4887C17.9385 18.4887 20.5391 17.9315 22.0514 16.735C23.4833 15.602 24.1562 13.703 24.1562 10.2763C24.1562 6.84973 23.4833 4.95066 22.0514 3.8177C20.5391 2.62115 17.9385 2.06398 13.5 2.06398C9.06148 2.06398 6.46092 2.62115 4.94862 3.8177ZM3.75911 2.26191C5.83688 0.617953 9.04881 0.0930176 13.5 0.0930176C17.9512 0.0930176 21.1631 0.617953 23.2409 2.26191C25.399 3.96946 26.0938 6.66931 26.0938 10.2763C26.0938 13.8834 25.399 16.5832 23.2409 18.2908C21.1631 19.9347 17.9512 20.4597 13.5 20.4597C13.1993 20.4597 12.9049 20.4572 12.6169 20.4522L7.72668 25.427C7.44962 25.7088 7.03294 25.7931 6.67094 25.6406C6.30895 25.4881 6.07292 25.1287 6.07292 24.7301V19.5334C4.34249 18.9189 3.04759 17.9452 2.18944 16.4838C1.24373 14.8734 0.90625 12.7981 0.90625 10.2763C0.90625 6.66931 1.60097 3.96946 3.75911 2.26191ZM7.36458 7.64839C7.36458 7.10412 7.79831 6.6629 8.33333 6.6629H18.6667C19.2017 6.6629 19.6354 7.10412 19.6354 7.64839C19.6354 8.19266 19.2017 8.63387 18.6667 8.63387H8.33333C7.79831 8.63387 7.36458 8.19266 7.36458 7.64839ZM7.36458 12.9043C7.36458 12.36 7.79831 11.9188 8.33333 11.9188H14.7917C15.3267 11.9188 15.7604 12.36 15.7604 12.9043C15.7604 13.4486 15.3267 13.8898 14.7917 13.8898H8.33333C7.79831 13.8898 7.36458 13.4486 7.36458 12.9043Z" fill="black"/>
</svg>
